<mxfile host="app.diagrams.net" agent="Mozilla/5.0 (Windows NT 10.0; Win64; x64) AppleWebKit/537.36 (KHTML, like Gecko) Chrome/131.0.0.0 Safari/537.36" version="25.0.3" pages="2">
  <diagram name="Class" id="R80XsyZZHy8UCF9YRLh8">
    <mxGraphModel grid="1" page="1" gridSize="10" guides="1" tooltips="1" connect="1" arrows="1" fold="1" pageScale="1" pageWidth="827" pageHeight="1169" math="0" shadow="0">
      <root>
        <mxCell id="0" />
        <mxCell id="1" parent="0" />
        <mxCell id="ZWIzc42kAqbY5q7V-Ipt-17" style="edgeStyle=orthogonalEdgeStyle;rounded=0;orthogonalLoop=1;jettySize=auto;html=1;entryX=1;entryY=0.5;entryDx=0;entryDy=0;endArrow=none;endFill=0;" edge="1" parent="1" source="e_LgsSF1SK_A5f4j3RPW-1" target="ZWIzc42kAqbY5q7V-Ipt-16">
          <mxGeometry relative="1" as="geometry" />
        </mxCell>
        <mxCell id="ZWIzc42kAqbY5q7V-Ipt-6" value="IndexedDBRepository" style="swimlane;fontStyle=1;align=center;verticalAlign=top;childLayout=stackLayout;horizontal=1;startSize=26;horizontalStack=0;resizeParent=1;resizeParentMax=0;resizeLast=0;collapsible=1;marginBottom=0;whiteSpace=wrap;html=1;" vertex="1" parent="1">
          <mxGeometry x="180" y="360" width="160" height="138" as="geometry" />
        </mxCell>
        <mxCell id="ZWIzc42kAqbY5q7V-Ipt-7" value="." style="text;strokeColor=none;fillColor=none;align=left;verticalAlign=top;spacingLeft=4;spacingRight=4;overflow=hidden;rotatable=0;points=[[0,0.5],[1,0.5]];portConstraint=eastwest;whiteSpace=wrap;html=1;" vertex="1" parent="ZWIzc42kAqbY5q7V-Ipt-6">
          <mxGeometry y="26" width="160" height="26" as="geometry" />
        </mxCell>
        <mxCell id="ZWIzc42kAqbY5q7V-Ipt-8" value="" style="line;strokeWidth=1;fillColor=none;align=left;verticalAlign=middle;spacingTop=-1;spacingLeft=3;spacingRight=3;rotatable=0;labelPosition=right;points=[];portConstraint=eastwest;strokeColor=inherit;" vertex="1" parent="ZWIzc42kAqbY5q7V-Ipt-6">
          <mxGeometry y="52" width="160" height="8" as="geometry" />
        </mxCell>
        <mxCell id="ZWIzc42kAqbY5q7V-Ipt-9" value="+ sync()" style="text;strokeColor=none;fillColor=none;align=left;verticalAlign=top;spacingLeft=4;spacingRight=4;overflow=hidden;rotatable=0;points=[[0,0.5],[1,0.5]];portConstraint=eastwest;whiteSpace=wrap;html=1;" vertex="1" parent="ZWIzc42kAqbY5q7V-Ipt-6">
          <mxGeometry y="60" width="160" height="26" as="geometry" />
        </mxCell>
        <mxCell id="ZWIzc42kAqbY5q7V-Ipt-34" value="+ read(path): FIleContent" style="text;strokeColor=none;fillColor=none;align=left;verticalAlign=top;spacingLeft=4;spacingRight=4;overflow=hidden;rotatable=0;points=[[0,0.5],[1,0.5]];portConstraint=eastwest;whiteSpace=wrap;html=1;" vertex="1" parent="ZWIzc42kAqbY5q7V-Ipt-6">
          <mxGeometry y="86" width="160" height="26" as="geometry" />
        </mxCell>
        <mxCell id="ZWIzc42kAqbY5q7V-Ipt-33" value="+ write(FileContent)" style="text;strokeColor=none;fillColor=none;align=left;verticalAlign=top;spacingLeft=4;spacingRight=4;overflow=hidden;rotatable=0;points=[[0,0.5],[1,0.5]];portConstraint=eastwest;whiteSpace=wrap;html=1;" vertex="1" parent="ZWIzc42kAqbY5q7V-Ipt-6">
          <mxGeometry y="112" width="160" height="26" as="geometry" />
        </mxCell>
        <mxCell id="ZWIzc42kAqbY5q7V-Ipt-10" value="DesktopRepository" style="swimlane;fontStyle=1;align=center;verticalAlign=top;childLayout=stackLayout;horizontal=1;startSize=26;horizontalStack=0;resizeParent=1;resizeParentMax=0;resizeLast=0;collapsible=1;marginBottom=0;whiteSpace=wrap;html=1;" vertex="1" parent="1">
          <mxGeometry x="414" y="360" width="160" height="138" as="geometry" />
        </mxCell>
        <mxCell id="ZWIzc42kAqbY5q7V-Ipt-11" value="." style="text;strokeColor=none;fillColor=none;align=left;verticalAlign=top;spacingLeft=4;spacingRight=4;overflow=hidden;rotatable=0;points=[[0,0.5],[1,0.5]];portConstraint=eastwest;whiteSpace=wrap;html=1;" vertex="1" parent="ZWIzc42kAqbY5q7V-Ipt-10">
          <mxGeometry y="26" width="160" height="26" as="geometry" />
        </mxCell>
        <mxCell id="ZWIzc42kAqbY5q7V-Ipt-12" value="" style="line;strokeWidth=1;fillColor=none;align=left;verticalAlign=middle;spacingTop=-1;spacingLeft=3;spacingRight=3;rotatable=0;labelPosition=right;points=[];portConstraint=eastwest;strokeColor=inherit;" vertex="1" parent="ZWIzc42kAqbY5q7V-Ipt-10">
          <mxGeometry y="52" width="160" height="8" as="geometry" />
        </mxCell>
        <mxCell id="ZWIzc42kAqbY5q7V-Ipt-13" value="+ sync()" style="text;strokeColor=none;fillColor=none;align=left;verticalAlign=top;spacingLeft=4;spacingRight=4;overflow=hidden;rotatable=0;points=[[0,0.5],[1,0.5]];portConstraint=eastwest;whiteSpace=wrap;html=1;" vertex="1" parent="ZWIzc42kAqbY5q7V-Ipt-10">
          <mxGeometry y="60" width="160" height="26" as="geometry" />
        </mxCell>
        <mxCell id="ZWIzc42kAqbY5q7V-Ipt-36" value="+ read(path): FIleContent" style="text;strokeColor=none;fillColor=none;align=left;verticalAlign=top;spacingLeft=4;spacingRight=4;overflow=hidden;rotatable=0;points=[[0,0.5],[1,0.5]];portConstraint=eastwest;whiteSpace=wrap;html=1;" vertex="1" parent="ZWIzc42kAqbY5q7V-Ipt-10">
          <mxGeometry y="86" width="160" height="26" as="geometry" />
        </mxCell>
        <mxCell id="ZWIzc42kAqbY5q7V-Ipt-35" value="+ write(FileContent)" style="text;strokeColor=none;fillColor=none;align=left;verticalAlign=top;spacingLeft=4;spacingRight=4;overflow=hidden;rotatable=0;points=[[0,0.5],[1,0.5]];portConstraint=eastwest;whiteSpace=wrap;html=1;" vertex="1" parent="ZWIzc42kAqbY5q7V-Ipt-10">
          <mxGeometry y="112" width="160" height="26" as="geometry" />
        </mxCell>
        <mxCell id="ZWIzc42kAqbY5q7V-Ipt-14" value="" style="endArrow=block;dashed=1;endFill=0;endSize=12;html=1;rounded=0;" edge="1" parent="1" source="ZWIzc42kAqbY5q7V-Ipt-6" target="ZWIzc42kAqbY5q7V-Ipt-27">
          <mxGeometry width="160" relative="1" as="geometry">
            <mxPoint x="254" y="240" as="sourcePoint" />
            <mxPoint x="414" y="240" as="targetPoint" />
          </mxGeometry>
        </mxCell>
        <mxCell id="ZWIzc42kAqbY5q7V-Ipt-15" value="" style="endArrow=block;dashed=1;endFill=0;endSize=12;html=1;rounded=0;" edge="1" parent="1" source="ZWIzc42kAqbY5q7V-Ipt-10" target="ZWIzc42kAqbY5q7V-Ipt-27">
          <mxGeometry width="160" relative="1" as="geometry">
            <mxPoint x="309" y="330" as="sourcePoint" />
            <mxPoint x="535" y="190" as="targetPoint" />
          </mxGeometry>
        </mxCell>
        <mxCell id="ZWIzc42kAqbY5q7V-Ipt-16" value="" style="ellipse;" vertex="1" parent="1">
          <mxGeometry x="100" y="-19" width="30" height="30" as="geometry" />
        </mxCell>
        <mxCell id="ZWIzc42kAqbY5q7V-Ipt-19" value="GitDataSource" style="swimlane;fontStyle=1;align=center;verticalAlign=top;childLayout=stackLayout;horizontal=1;startSize=26;horizontalStack=0;resizeParent=1;resizeParentMax=0;resizeLast=0;collapsible=1;marginBottom=0;whiteSpace=wrap;html=1;" vertex="1" parent="1">
          <mxGeometry x="660" y="143" width="160" height="112" as="geometry" />
        </mxCell>
        <mxCell id="ZWIzc42kAqbY5q7V-Ipt-20" value="." style="text;strokeColor=none;fillColor=none;align=left;verticalAlign=top;spacingLeft=4;spacingRight=4;overflow=hidden;rotatable=0;points=[[0,0.5],[1,0.5]];portConstraint=eastwest;whiteSpace=wrap;html=1;" vertex="1" parent="ZWIzc42kAqbY5q7V-Ipt-19">
          <mxGeometry y="26" width="160" height="26" as="geometry" />
        </mxCell>
        <mxCell id="ZWIzc42kAqbY5q7V-Ipt-21" value="" style="line;strokeWidth=1;fillColor=none;align=left;verticalAlign=middle;spacingTop=-1;spacingLeft=3;spacingRight=3;rotatable=0;labelPosition=right;points=[];portConstraint=eastwest;strokeColor=inherit;" vertex="1" parent="ZWIzc42kAqbY5q7V-Ipt-19">
          <mxGeometry y="52" width="160" height="8" as="geometry" />
        </mxCell>
        <mxCell id="ZWIzc42kAqbY5q7V-Ipt-22" value="+ pull()" style="text;strokeColor=none;fillColor=none;align=left;verticalAlign=top;spacingLeft=4;spacingRight=4;overflow=hidden;rotatable=0;points=[[0,0.5],[1,0.5]];portConstraint=eastwest;whiteSpace=wrap;html=1;" vertex="1" parent="ZWIzc42kAqbY5q7V-Ipt-19">
          <mxGeometry y="60" width="160" height="26" as="geometry" />
        </mxCell>
        <mxCell id="ZWIzc42kAqbY5q7V-Ipt-38" value="+ push()" style="text;strokeColor=none;fillColor=none;align=left;verticalAlign=top;spacingLeft=4;spacingRight=4;overflow=hidden;rotatable=0;points=[[0,0.5],[1,0.5]];portConstraint=eastwest;whiteSpace=wrap;html=1;" vertex="1" parent="ZWIzc42kAqbY5q7V-Ipt-19">
          <mxGeometry y="86" width="160" height="26" as="geometry" />
        </mxCell>
        <mxCell id="ZWIzc42kAqbY5q7V-Ipt-27" value="&lt;span style=&quot;font-weight: 400;&quot;&gt;«interface»&lt;/span&gt;&lt;br style=&quot;font-weight: 400;&quot;&gt;IProjectFilesRepository" style="swimlane;fontStyle=1;align=center;verticalAlign=top;childLayout=stackLayout;horizontal=1;startSize=26;horizontalStack=0;resizeParent=1;resizeParentMax=0;resizeLast=0;collapsible=1;marginBottom=0;whiteSpace=wrap;html=1;" vertex="1" parent="1">
          <mxGeometry x="270" y="126" width="210" height="138" as="geometry" />
        </mxCell>
        <mxCell id="ZWIzc42kAqbY5q7V-Ipt-28" value="&lt;div&gt;&lt;span style=&quot;background-color: initial;&quot;&gt;.&lt;/span&gt;&lt;/div&gt;" style="text;strokeColor=none;fillColor=none;align=left;verticalAlign=top;spacingLeft=4;spacingRight=4;overflow=hidden;rotatable=0;points=[[0,0.5],[1,0.5]];portConstraint=eastwest;whiteSpace=wrap;html=1;" vertex="1" parent="ZWIzc42kAqbY5q7V-Ipt-27">
          <mxGeometry y="26" width="210" height="26" as="geometry" />
        </mxCell>
        <mxCell id="ZWIzc42kAqbY5q7V-Ipt-29" value="" style="line;strokeWidth=1;fillColor=none;align=left;verticalAlign=middle;spacingTop=-1;spacingLeft=3;spacingRight=3;rotatable=0;labelPosition=right;points=[];portConstraint=eastwest;strokeColor=inherit;" vertex="1" parent="ZWIzc42kAqbY5q7V-Ipt-27">
          <mxGeometry y="52" width="210" height="8" as="geometry" />
        </mxCell>
        <mxCell id="ZWIzc42kAqbY5q7V-Ipt-30" value="+ sync()" style="text;strokeColor=none;fillColor=none;align=left;verticalAlign=top;spacingLeft=4;spacingRight=4;overflow=hidden;rotatable=0;points=[[0,0.5],[1,0.5]];portConstraint=eastwest;whiteSpace=wrap;html=1;" vertex="1" parent="ZWIzc42kAqbY5q7V-Ipt-27">
          <mxGeometry y="60" width="210" height="26" as="geometry" />
        </mxCell>
        <mxCell id="ZWIzc42kAqbY5q7V-Ipt-31" value="+ read(path): FIleContent" style="text;strokeColor=none;fillColor=none;align=left;verticalAlign=top;spacingLeft=4;spacingRight=4;overflow=hidden;rotatable=0;points=[[0,0.5],[1,0.5]];portConstraint=eastwest;whiteSpace=wrap;html=1;" vertex="1" parent="ZWIzc42kAqbY5q7V-Ipt-27">
          <mxGeometry y="86" width="210" height="26" as="geometry" />
        </mxCell>
        <mxCell id="ZWIzc42kAqbY5q7V-Ipt-32" value="+ write(FileContent)" style="text;strokeColor=none;fillColor=none;align=left;verticalAlign=top;spacingLeft=4;spacingRight=4;overflow=hidden;rotatable=0;points=[[0,0.5],[1,0.5]];portConstraint=eastwest;whiteSpace=wrap;html=1;" vertex="1" parent="ZWIzc42kAqbY5q7V-Ipt-27">
          <mxGeometry y="112" width="210" height="26" as="geometry" />
        </mxCell>
        <mxCell id="ZWIzc42kAqbY5q7V-Ipt-37" value="Use" style="endArrow=open;endSize=12;dashed=1;html=1;rounded=0;exitX=1;exitY=0.5;exitDx=0;exitDy=0;" edge="1" parent="1" source="ZWIzc42kAqbY5q7V-Ipt-30" target="ZWIzc42kAqbY5q7V-Ipt-19">
          <mxGeometry width="160" relative="1" as="geometry">
            <mxPoint x="500" y="120" as="sourcePoint" />
            <mxPoint x="660" y="120" as="targetPoint" />
          </mxGeometry>
        </mxCell>
        <mxCell id="e_LgsSF1SK_A5f4j3RPW-1" value="&lt;div&gt;&amp;lt;&amp;lt;singletone&amp;gt;&amp;gt;&lt;/div&gt;RepositoryHolder" style="swimlane;fontStyle=1;align=center;verticalAlign=top;childLayout=stackLayout;horizontal=1;startSize=26;horizontalStack=0;resizeParent=1;resizeParentMax=0;resizeLast=0;collapsible=1;marginBottom=0;whiteSpace=wrap;html=1;" vertex="1" parent="1">
          <mxGeometry x="257.5" y="-60" width="235" height="112" as="geometry" />
        </mxCell>
        <mxCell id="e_LgsSF1SK_A5f4j3RPW-2" value="&lt;span style=&quot;text-align: center;&quot;&gt;-repository:&amp;nbsp;&lt;/span&gt;&lt;span style=&quot;text-align: center;&quot;&gt;IProjectFilesRepository&lt;/span&gt;" style="text;strokeColor=none;fillColor=none;align=left;verticalAlign=top;spacingLeft=4;spacingRight=4;overflow=hidden;rotatable=0;points=[[0,0.5],[1,0.5]];portConstraint=eastwest;whiteSpace=wrap;html=1;fontStyle=0" vertex="1" parent="e_LgsSF1SK_A5f4j3RPW-1">
          <mxGeometry y="26" width="235" height="26" as="geometry" />
        </mxCell>
        <mxCell id="e_LgsSF1SK_A5f4j3RPW-3" value="" style="line;strokeWidth=1;fillColor=none;align=left;verticalAlign=middle;spacingTop=-1;spacingLeft=3;spacingRight=3;rotatable=0;labelPosition=right;points=[];portConstraint=eastwest;strokeColor=inherit;" vertex="1" parent="e_LgsSF1SK_A5f4j3RPW-1">
          <mxGeometry y="52" width="235" height="8" as="geometry" />
        </mxCell>
        <mxCell id="e_LgsSF1SK_A5f4j3RPW-4" value="+ createRepository()" style="text;strokeColor=none;fillColor=none;align=left;verticalAlign=top;spacingLeft=4;spacingRight=4;overflow=hidden;rotatable=0;points=[[0,0.5],[1,0.5]];portConstraint=eastwest;whiteSpace=wrap;html=1;" vertex="1" parent="e_LgsSF1SK_A5f4j3RPW-1">
          <mxGeometry y="60" width="235" height="26" as="geometry" />
        </mxCell>
        <mxCell id="e_LgsSF1SK_A5f4j3RPW-7" value="+ getRepository():&amp;nbsp;&lt;span style=&quot;text-align: center;&quot;&gt;IProjectFilesRepository&lt;/span&gt;" style="text;strokeColor=none;fillColor=none;align=left;verticalAlign=top;spacingLeft=4;spacingRight=4;overflow=hidden;rotatable=0;points=[[0,0.5],[1,0.5]];portConstraint=eastwest;whiteSpace=wrap;html=1;" vertex="1" parent="e_LgsSF1SK_A5f4j3RPW-1">
          <mxGeometry y="86" width="235" height="26" as="geometry" />
        </mxCell>
        <mxCell id="e_LgsSF1SK_A5f4j3RPW-12" value="1" style="endArrow=open;html=1;endSize=12;startArrow=diamondThin;startSize=14;startFill=1;edgeStyle=orthogonalEdgeStyle;align=left;verticalAlign=bottom;rounded=0;" edge="1" parent="1" source="e_LgsSF1SK_A5f4j3RPW-1" target="ZWIzc42kAqbY5q7V-Ipt-27">
          <mxGeometry x="0.5676" y="15" relative="1" as="geometry">
            <mxPoint x="130" y="80" as="sourcePoint" />
            <mxPoint x="380" y="60" as="targetPoint" />
            <mxPoint as="offset" />
          </mxGeometry>
        </mxCell>
      </root>
    </mxGraphModel>
  </diagram>
  <diagram id="FTts7sBzk_tOcSqDUqot" name="Behaviour">
    <mxGraphModel grid="1" page="1" gridSize="10" guides="1" tooltips="1" connect="1" arrows="1" fold="1" pageScale="1" pageWidth="827" pageHeight="1169" math="0" shadow="0">
      <root>
        <mxCell id="0" />
        <mxCell id="1" parent="0" />
        <mxCell id="kK90dYU83CbrhjtIEF3s-4" value="&lt;div style=&quot;&quot;&gt;&lt;span style=&quot;background-color: initial;&quot;&gt;Create Repository&lt;/span&gt;&lt;/div&gt;" style="shape=note2;boundedLbl=1;whiteSpace=wrap;html=1;size=25;verticalAlign=top;align=left;" vertex="1" parent="1">
          <mxGeometry x="165" y="200" width="400" height="260" as="geometry" />
        </mxCell>
        <mxCell id="OWeRouo8MDR_Vy97vWgh-3" style="edgeStyle=orthogonalEdgeStyle;rounded=0;orthogonalLoop=1;jettySize=auto;html=1;" edge="1" parent="1" source="OWeRouo8MDR_Vy97vWgh-1" target="OWeRouo8MDR_Vy97vWgh-2">
          <mxGeometry relative="1" as="geometry" />
        </mxCell>
        <mxCell id="OWeRouo8MDR_Vy97vWgh-1" value="" style="ellipse;" vertex="1" parent="1">
          <mxGeometry x="350" y="210" width="30" height="30" as="geometry" />
        </mxCell>
        <mxCell id="kK90dYU83CbrhjtIEF3s-1" value="Web" style="edgeStyle=orthogonalEdgeStyle;rounded=0;orthogonalLoop=1;jettySize=auto;html=1;exitX=0;exitY=0.5;exitDx=0;exitDy=0;" edge="1" parent="1" source="OWeRouo8MDR_Vy97vWgh-2" target="OWeRouo8MDR_Vy97vWgh-5">
          <mxGeometry x="-0.1342" y="-10" relative="1" as="geometry">
            <mxPoint as="offset" />
          </mxGeometry>
        </mxCell>
        <mxCell id="kK90dYU83CbrhjtIEF3s-2" style="edgeStyle=orthogonalEdgeStyle;rounded=0;orthogonalLoop=1;jettySize=auto;html=1;exitX=1;exitY=0.5;exitDx=0;exitDy=0;" edge="1" parent="1" source="OWeRouo8MDR_Vy97vWgh-2" target="o1rpeGJoO96N-xDn2ZuB-1">
          <mxGeometry relative="1" as="geometry" />
        </mxCell>
        <mxCell id="kK90dYU83CbrhjtIEF3s-6" value="Desktop" style="edgeLabel;html=1;align=center;verticalAlign=middle;resizable=0;points=[];" connectable="0" vertex="1" parent="kK90dYU83CbrhjtIEF3s-2">
          <mxGeometry x="-0.3583" relative="1" as="geometry">
            <mxPoint x="4" y="-10" as="offset" />
          </mxGeometry>
        </mxCell>
        <mxCell id="OWeRouo8MDR_Vy97vWgh-2" value="User&#39;s &#xa;Platform" style="rhombus;" vertex="1" parent="1">
          <mxGeometry x="326.25" y="310" width="77.5" height="80" as="geometry" />
        </mxCell>
        <mxCell id="OWeRouo8MDR_Vy97vWgh-5" value="&lt;span style=&quot;font-weight: 700;&quot;&gt;Create IndexedDBRepository&lt;/span&gt;" style="html=1;align=center;verticalAlign=top;rounded=1;absoluteArcSize=1;arcSize=10;dashed=0;whiteSpace=wrap;" vertex="1" parent="1">
          <mxGeometry x="186.25" y="410" width="140" height="40" as="geometry" />
        </mxCell>
        <mxCell id="o1rpeGJoO96N-xDn2ZuB-1" value="&lt;span style=&quot;font-weight: 700;&quot;&gt;Create DesktopRepository&lt;/span&gt;" style="html=1;align=center;verticalAlign=top;rounded=1;absoluteArcSize=1;arcSize=10;dashed=0;whiteSpace=wrap;" vertex="1" parent="1">
          <mxGeometry x="403.75" y="410" width="140" height="40" as="geometry" />
        </mxCell>
      </root>
    </mxGraphModel>
  </diagram>
</mxfile>
